<svg xmlns="http://www.w3.org/2000/svg" viewBox="0 0 260 360" role="img" aria-label="Lavender illustration">
  <rect width="260" height="360" fill="none"/>
  <g fill="none" stroke="#a8c99a" stroke-linecap="round" stroke-width="8">
    <path d="M128 330 C113 265 103 206 90 148 C82 111 72 73 59 32"/>
    <path d="M135 330 C140 268 140 207 139 151 C138 101 135 62 123 18"/>
    <path d="M132 330 C104 288 78 262 45 244"/>
    <path d="M135 330 C153 286 174 256 207 231"/>
  </g>
  <g opacity=".98">
    <ellipse cx="54" cy="39" rx="18" ry="34" fill="#7162aa" transform="rotate(-4 54 39)"/>
    <ellipse cx="43" cy="91" rx="20" ry="36" fill="#b7aaf0" transform="rotate(-41 43 91)"/>
    <ellipse cx="75" cy="90" rx="22" ry="35" fill="#aaa0cc" transform="rotate(23 75 90)"/>
    <ellipse cx="43" cy="137" rx="20" ry="35" fill="#7568af" transform="rotate(-38 43 137)"/>
    <ellipse cx="78" cy="141" rx="20" ry="35" fill="#7568af" transform="rotate(22 78 141)"/>
    <ellipse cx="55" cy="157" rx="18" ry="32" fill="#aaa0cc" transform="rotate(-54 55 157)"/>
    <ellipse cx="66" cy="207" rx="21" ry="35" fill="#b8adf1" transform="rotate(-28 66 207)"/>
    <ellipse cx="50" cy="242" rx="18" ry="31" fill="#7568af" transform="rotate(-43 50 242)"/>
    <ellipse cx="79" cy="245" rx="16" ry="30" fill="#aaa0cc" transform="rotate(24 79 245)"/>
    <ellipse cx="69" cy="294" rx="17" ry="31" fill="#aaa0cc" transform="rotate(-67 69 294)"/>
    <ellipse cx="96" cy="294" rx="14" ry="27" fill="#b8adf1" transform="rotate(22 96 294)"/>
  </g>
  <g opacity=".98">
    <ellipse cx="124" cy="28" rx="20" ry="38" fill="#7162aa" transform="rotate(-14 124 28)"/>
    <ellipse cx="112" cy="91" rx="23" ry="37" fill="#aaa0cc" transform="rotate(-48 112 91)"/>
    <ellipse cx="151" cy="86" rx="23" ry="40" fill="#b8adf1" transform="rotate(36 151 86)"/>
    <ellipse cx="117" cy="141" rx="20" ry="35" fill="#7568af" transform="rotate(-38 117 141)"/>
    <ellipse cx="154" cy="141" rx="22" ry="38" fill="#7568af" transform="rotate(38 154 141)"/>
    <ellipse cx="149" cy="166" rx="16" ry="31" fill="#aaa0cc" transform="rotate(37 149 166)"/>
    <ellipse cx="120" cy="204" rx="20" ry="37" fill="#7568af" transform="rotate(-34 120 204)"/>
    <ellipse cx="158" cy="216" rx="23" ry="40" fill="#b8adf1" transform="rotate(16 158 216)"/>
    <ellipse cx="135" cy="266" rx="21" ry="34" fill="#aaa0cc" transform="rotate(-35 135 266)"/>
    <ellipse cx="165" cy="272" rx="19" ry="34" fill="#7568af" transform="rotate(42 165 272)"/>
    <ellipse cx="143" cy="318" rx="18" ry="30" fill="#b8adf1" transform="rotate(-36 143 318)"/>
    <ellipse cx="174" cy="318" rx="15" ry="29" fill="#aaa0cc" transform="rotate(43 174 318)"/>
  </g>
</svg>
